<svg width="991" height="3010" viewBox="0 0 991 3010" fill="none" xmlns="http://www.w3.org/2000/svg">
<path d="M623.551 300L622.582 287.13M620.796 263.405L624.776 256.582M620.796 263.405L616.663 257.203M620.796 263.405L620.5 252.5M620.796 263.405L621.613 274.259M612.531 251L616.663 257.203M616.663 257.203L611 256.582M621.613 274.259L618.041 270.538M621.613 274.259L616.663 266.816L618.041 270.538M621.613 274.259L623.807 272.399M621.613 274.259L622.582 287.13M618.041 270.538H614.367M626 270.538L623.807 272.399M623.807 272.399L626 274.259M622.582 287.13L625.365 284.145M625.5 284L626 279M625.5 284L628 283.5L625.365 284.145M625.5 284L625.365 284.145M625.5 284L624 282M626 279L628 278M626 279L628 280.5" stroke="#6A6A6A"/>
<path d="M623.551 300L622.582 287.13M620.796 263.405L624.776 256.582M620.796 263.405L616.663 257.203M620.796 263.405L620.5 252.5M620.796 263.405L621.613 274.259M612.531 251L616.663 257.203M616.663 257.203L611 256.582M621.613 274.259L618.041 270.538M621.613 274.259L616.663 266.816L618.041 270.538M621.613 274.259L623.807 272.399M621.613 274.259L622.582 287.13M618.041 270.538H614.367M626 270.538L623.807 272.399M623.807 272.399L626 274.259M622.582 287.13L625.365 284.145M625.5 284L626 279M625.5 284L628 283.5L625.365 284.145M625.5 284L625.365 284.145M625.5 284L624 282M626 279L628 278M626 279L628 280.5" stroke="#6A6A6A"/>
<path d="M623.551 300L622.582 287.13M620.796 263.405L624.776 256.582M620.796 263.405L616.663 257.203M620.796 263.405L620.5 252.5M620.796 263.405L621.613 274.259M612.531 251L616.663 257.203M616.663 257.203L611 256.582M621.613 274.259L618.041 270.538M621.613 274.259L616.663 266.816L618.041 270.538M621.613 274.259L623.807 272.399M621.613 274.259L622.582 287.13M618.041 270.538H614.367M626 270.538L623.807 272.399M623.807 272.399L626 274.259M622.582 287.13L625.365 284.145M625.5 284L626 279M625.5 284L628 283.5L625.365 284.145M625.5 284L625.365 284.145M625.5 284L624 282M626 279L628 278M626 279L628 280.5" stroke="#6A6A6A"/>
<path d="M135.468 373L137.748 342.532M141.951 286.367L132.587 270.215M141.951 286.367L151.675 271.684M141.951 286.367L142.647 260.551M141.951 286.367L140.028 312.063M161.399 257L151.675 271.684M151.675 271.684L165 270.215M140.028 312.063L148.433 303.253M140.028 312.063L151.675 294.443L148.433 303.253M140.028 312.063L134.867 307.658M140.028 312.063L137.748 342.532M148.433 303.253H157.077M129.706 303.253L134.867 307.658M134.867 307.658L129.706 312.063M137.748 342.532L131.2 335.465M130.882 335.122L129.706 323.286M130.882 335.122L125 333.939L131.2 335.465M130.882 335.122L131.2 335.465M130.882 335.122L134.412 330.388M129.706 323.286L125 320.918M129.706 323.286L125 326.837" stroke="#6A6A6A"/>
<path d="M135.468 373L137.748 342.532M141.951 286.367L132.587 270.215M141.951 286.367L151.675 271.684M141.951 286.367L142.647 260.551M141.951 286.367L140.028 312.063M161.399 257L151.675 271.684M151.675 271.684L165 270.215M140.028 312.063L148.433 303.253M140.028 312.063L151.675 294.443L148.433 303.253M140.028 312.063L134.867 307.658M140.028 312.063L137.748 342.532M148.433 303.253H157.077M129.706 303.253L134.867 307.658M134.867 307.658L129.706 312.063M137.748 342.532L131.2 335.465M130.882 335.122L129.706 323.286M130.882 335.122L125 333.939L131.2 335.465M130.882 335.122L131.2 335.465M130.882 335.122L134.412 330.388M129.706 323.286L125 320.918M129.706 323.286L125 326.837" stroke="#6A6A6A"/>
<path d="M135.468 373L137.748 342.532M141.951 286.367L132.587 270.215M141.951 286.367L151.675 271.684M141.951 286.367L142.647 260.551M141.951 286.367L140.028 312.063M161.399 257L151.675 271.684M151.675 271.684L165 270.215M140.028 312.063L148.433 303.253M140.028 312.063L151.675 294.443L148.433 303.253M140.028 312.063L134.867 307.658M140.028 312.063L137.748 342.532M148.433 303.253H157.077M129.706 303.253L134.867 307.658M134.867 307.658L129.706 312.063M137.748 342.532L131.2 335.465M130.882 335.122L129.706 323.286M130.882 335.122L125 333.939L131.2 335.465M130.882 335.122L131.2 335.465M130.882 335.122L134.412 330.388M129.706 323.286L125 320.918M129.706 323.286L125 326.837" stroke="#6A6A6A"/>
<path d="M704.541 223.259L705.465 213.171M705.854 208.917L703.684 206.272M705.854 208.917L708.047 206.463M705.854 208.917L708.03 205.007L708.047 206.463M705.854 208.917L705.465 213.171M710.24 204.01L708.047 206.463M708.047 206.463L711.088 206.185M705.465 213.171L707.368 211.692M705.465 213.171L708.091 210.227L707.368 211.692M705.465 213.171L704.277 212.457M707.368 211.692L709.342 211.669M703.089 211.742L704.277 212.457M704.277 212.457L703.106 213.199" stroke="#6A6A6A"/>
<path d="M704.541 223.259L705.465 213.171M705.854 208.917L703.684 206.272M705.854 208.917L708.047 206.463M705.854 208.917L708.03 205.007L708.047 206.463M705.854 208.917L705.465 213.171M710.24 204.01L708.047 206.463M708.047 206.463L711.088 206.185M705.465 213.171L707.368 211.692M705.465 213.171L708.091 210.227L707.368 211.692M705.465 213.171L704.277 212.457M707.368 211.692L709.342 211.669M703.089 211.742L704.277 212.457M704.277 212.457L703.106 213.199" stroke="#6A6A6A"/>
<path d="M704.541 223.259L705.465 213.171M705.854 208.917L703.684 206.272M705.854 208.917L708.047 206.463M705.854 208.917L708.03 205.007L708.047 206.463M705.854 208.917L705.465 213.171M710.24 204.01L708.047 206.463M708.047 206.463L711.088 206.185M705.465 213.171L707.368 211.692M705.465 213.171L708.091 210.227L707.368 211.692M705.465 213.171L704.277 212.457M707.368 211.692L709.342 211.669M703.089 211.742L704.277 212.457M704.277 212.457L703.106 213.199" stroke="#6A6A6A"/>
<path d="M858.5 6L877.5 24.5L882.5 36.5L840.5 55.5L877.5 73H915L890.5 89L856 105L811.5 120L894.5 146L858.5 174L797 198L750 216L722.5 213L705.5 227L690.5 250L665 283.5L639 322.5L523.5 364.5L1 486.5M662 277.5L628 309L576 330.5L484 346.5L1 431V407.5L261.5 370L571 328L624.5 309L662 277.5ZM662 277.5L683.5 254L702.5 227.5L706 224.5L708.5 222L710 220.5" stroke="#95D0FA"/>
<path d="M674 267.5L641 304.5L621 320L572.5 338.5L2 446.5V460V473.5L484 367L572.5 344L621 325.5L646 304.5L674 267.5ZM674 267.5L689 248.5L701 232L705.5 227" stroke="#95D0FA"/>
<path d="M858 5L876.5 24L884 37L866 44.5L842.5 55.5L876.5 72H915.5L892.5 87L855 105L808 120L842.5 130L866 137.5L892.5 146.5L855 174L808 191.5L781 202L754 212H721L701 227.5L669.5 266L629 300.5L572.5 320.5L378 343L197.5 365L2 394" stroke="#95D0FA"/>
<path d="M787.756 203.267L788.196 197.888M788.382 195.619L787.332 194.207M788.382 195.619L789.44 194.312M788.382 195.619L789.431 193.535L789.44 194.312M788.382 195.619L788.196 197.888M790.498 193.005L789.44 194.312M789.44 194.312L790.909 194.165M788.196 197.888L789.115 197.1M788.196 197.888L789.463 196.319L789.115 197.1M788.196 197.888L787.622 197.506M789.115 197.1L790.069 197.089M787.048 197.124L787.622 197.506M787.622 197.506L787.057 197.901" stroke="#6A6A6A"/>
<path d="M787.756 203.267L788.196 197.888M788.382 195.619L787.332 194.207M788.382 195.619L789.44 194.312M788.382 195.619L789.431 193.535L789.44 194.312M788.382 195.619L788.196 197.888M790.498 193.005L789.44 194.312M789.44 194.312L790.909 194.165M788.196 197.888L789.115 197.1M788.196 197.888L789.463 196.319L789.115 197.1M788.196 197.888L787.622 197.506M789.115 197.1L790.069 197.089M787.048 197.124L787.622 197.506M787.622 197.506L787.057 197.901" stroke="#6A6A6A"/>
<path d="M787.756 203.267L788.196 197.888M788.382 195.619L787.332 194.207M788.382 195.619L789.44 194.312M788.382 195.619L789.431 193.535L789.44 194.312M788.382 195.619L788.196 197.888M790.498 193.005L789.44 194.312M789.44 194.312L790.909 194.165M788.196 197.888L789.115 197.1M788.196 197.888L789.463 196.319L789.115 197.1M788.196 197.888L787.622 197.506M789.115 197.1L790.069 197.089M787.048 197.124L787.622 197.506M787.622 197.506L787.057 197.901" stroke="#6A6A6A"/>
<path d="M115 104.744L1 189.875V3008.5H989.5V144.5L958 126.271L859 2L741.5 189.875L654 104.744L538.5 189.875L363.5 104.744L223 155.627L115 104.744Z" stroke="#95D0FA" stroke-width="2"/>
</svg>
