<svg width="1069" height="2990" viewBox="0 0 1069 2990" fill="none" xmlns="http://www.w3.org/2000/svg">
<path d="M1052.5 104L945 91L828 38L745 91L673 83L611 59.9752L556 91L469.5 53.4689L413.251 59.9752L346 30L273 59.9752L201 101L91.5 44.5L46.4125 76.6576L0 129.5V309H1068L1052.5 104Z" fill="#DCDCDC"/>
<path d="M73.5 103L1 175V2947.5H1069V101.5L1051.5 91.5L1031.5 73L992.5 38.5L932.5 67L865.5 101.5L789.5 43.7441L687 116L613.5 94.627L596.5 79.5L576.5 74L562.5 56.5L549 40L532 32.5L517 24L502 32.5L490 47L465.5 56.5L452.5 79.5L372.5 67L291 134.5L213.5 79.5L128.5 125L73.5 103Z" fill="#D3D3D3"/>
<path d="M0 2989.5V170.875L29.5 133L53.5 110.5L80.5 118L96.5 100L111.5 88.5L127 82L135 88.5L156 94L176 110.5L206.5 118L221.5 129.5L239.854 136.627L260 118L268.5 110.5L278.5 109L287 105L298.5 110.5L311 118L329.5 125.5L384.5 105L415 100L429.5 91L439 84L448 85.7441L460.5 91L478 105.5L504 110L529 124.5L538.5 127.5L544 133L546.5 140.5L554.5 145.5L565 160.5L580.728 170.875L620.5 148L636.5 124L659.5 97L682.5 86.5L700.5 73.5L725 97L738.5 114L764.5 124L776 153L800 161.5L813 114L844 69.5L867.5 43L895.267 29.9688L928.5 1L955 16L1000.5 59.5L1023 73.5L1043.5 97L1068 125.5V2989.5H0Z" fill="white"/>
<path d="M751 119L764 123.954L749.5 136L730.5 146L747 133.227L751 123.954V119Z" fill="#E8E7E7"/>
<path d="M894.5 30.5L887.399 42.4231L908.339 58.3678L921 81.2217L903.226 63.3654L877.903 60.1518L893.243 74.0745L883.99 75.2644L877.903 97.3966L893.243 127.5L869.865 100.742L835.5 92.5L865.486 83.8317L861.103 72.4087L858.181 63.3654L862.807 58.3678L869.865 51.7043L868 43L894.5 30.5Z" fill="#E8E7E7"/>
<path d="M687.5 83V89.5L693.903 93L689 97.5L688 104.5L690 111.5L693.903 114L689 123.5L696.5 152L689 138.5L681 122L655 135.5L675.5 117L655 121.5L669.5 112.5L676 109.5L681 107L685.865 97.5V94.2043L684 85.5L687.5 83Z" fill="#E8E7E7"/>
<path d="M968 29L955 16.5L943 9.8822L952.5 26.8822L963.5 30.3822L980 43.3822L997 60.3822L1008 84.3822L1000.5 60L968 29Z" fill="#E8E7E7"/>
</svg>
