<svg width="1068" height="2990" viewBox="0 0 1068 2990" fill="none" xmlns="http://www.w3.org/2000/svg">
<path d="M1052.5 104L945 91L828 38L827 37.5L826.5 37L826 37.5L825.5 38.5L825 38.25L824.5 38L823.5 37.5C823.5 37.5 821.875 39.5614 821.5 40.5C820.5 43 818.5 45.5 818.5 45.5L807.25 51.25L786.5 64.5L745 91L673 83C673 83 624.5 62.5 611 61C597.5 59.5 556 91 556 91L469.5 53.4689L441.376 56.722L428 58L427.5 57.5L426.5 57L425.5 56.5L424 57.5L420.283 59.1619L413.251 59.9752L403.5 57.5L396.439 52.4814L379.626 44.9876L362.813 37.4938L354.406 33.7469L346 30L341 31L337 35L328 40L309.5 44.9876L273 59.9752L201 101L146.5 72.5L145 72L144 71L143 69.5L139.5 68.5L135.984 67.4531L132.562 65.6875L118.875 58.625L104.5 52.5L98 48.5L94.75 46.5L93.125 45.5L92 45L91.5 44.5L89.625 45.5L87.75 46.5L84 48.5L80.2281 52.5394L76 58.5L68.9563 60.5788L46.4125 76.6576L26.4563 99.3288L6.5 122L3.25 125.75C3.25 125.75 1 128.5 0.5 129.5C0 130.5 0 132 0 132V134.5V219.25V309H1068L1052.5 104Z" fill="#DCDCDC"/>
<path d="M686.358 115.984L612.927 94.6149L595.942 79.4905L575.961 73.9915L561.974 56.4944L548.487 39.9973L531.503 32.4985L516.517 24L501.531 32.4985L489.542 46.9961L465.065 56.4944L452.077 79.4905L411.5 66.9926L402 72.5L391 71L378.5 66.9926H372.152L365 77L351.796 83.8648L331.44 100.737L290.728 134.481L240 94.5L213.301 79.4905L196 88.5L181 102.986L128.381 124.983L100.906 113.985L87.1692 108.486L77 106L73.4321 102.986L57.5 109L46.2161 118.734L19 134.481L1 174.974V2947H1068V1524.24V812.865V457.176V279.331V190.409V145.948V123.717V112.602V107.044V104.266V102.876C1068 102.876 1068 101.5 1067.5 101C1067 100.5 1050.52 91.4885 1050.52 91.4885L1038 78.5L1024 70.5L1013.5 55L991.572 38.4975L931.628 66.9926L864.691 101.487L826.726 72.6138L819 62L809 58L801.5 52.5L794.5 45.5L788.762 43.7408V54L783 66.9926L742 86L686.358 115.984Z" fill="#D3D3D3"/>
<path d="M0 2989.5V170.875L29.5 133L41.5 121.75L46.5 114.5L53.5 110.5L58.5 114.5L67 114.25L80.5 118L96.5 100L111.5 88.5L127 82L135 88.5L156 94L176 110.5L206.5 118L221.5 129.5L239.854 136.627L260 118L268.5 110.5L278.5 109L287 105L298.5 110.5L311 118L329.5 125.5L384.5 105L415 100L429.5 91L439 84L448 85.7441L460.5 91L478 105.5L504 110L529 124.5L538.5 127.5L544 133L546.5 140.5L554.5 145.5L565 160.5L580.728 170.875L620.5 148L636.5 124L659.5 97L682.5 86.5L700.5 73.5L725 97L738.5 114L764.5 124L776 153L800 161.5L813 114L828.5 91.75L837 79L849.5 73.5L855.75 56.25L867.5 43L895.267 29.9688L928.5 1L955 16L1000.5 59.5L1023 73.5L1043.5 97L1068 125.5V2989.5H0Z" fill="white"/>
<path d="M751 119L764 123.954L749.5 136L730.5 146L747 133.227L751 123.954V119Z" fill="#E8E7E7"/>
<path d="M893.5 30.5L886.399 42.4231L907.339 58.3678L920 81.2217L902.226 63.3654L876.903 60.1518L892.243 74.0745L882.99 75.2644L876.903 97.3966L892.243 127.5L868.865 100.742L834.5 92.5L864.486 83.8317L860.103 72.4087L857.181 63.3654L861.807 58.3678L868.865 51.7043L867 43L893.5 30.5Z" fill="#E8E7E7"/>
<path d="M686.5 83V89.5L692.903 93L688 97.5L687 104.5L689 111.5L692.903 114L688 123.5L695.5 152L688 138.5L680 122L654 135.5L674.5 117L654 121.5L668.5 112.5L675 109.5L680 107L684.865 97.5V94.2043L683 85.5L686.5 83Z" fill="#E8E7E7"/>
<path d="M967 28.9999L954 16.4999L942 9.88208L951.5 26.8821L962.5 30.3821L979 43.3821L996 60.3821L1007 84.3821L999.5 59.9999L967 28.9999Z" fill="#E8E7E7"/>
</svg>
