<svg width="620" height="424" viewBox="0 0 620 424" fill="none" xmlns="http://www.w3.org/2000/svg">
<path d="M540.294 279.72L435.721 193.959L329.212 10.3296L269.179 102.144L183.971 162.681L140.399 257.523L96.8269 279.72L0 424H619.692L540.294 279.72Z" fill="#A4A4A4"/>
<path d="M329.212 10.3296L312.751 86.001L356.323 147.547L303.068 144.52L380.53 202.03L322.434 240.371L268.211 367.499L282.735 276.693L174.288 253.487L295.322 213.129L269.179 102.144L329.212 10.3296Z" fill="#E8E7E7"/>
<path d="M493.817 242.389L440.562 303.935L363.101 367.499L474.452 320.078L540.294 279.72L493.817 242.389Z" fill="#E8E7E7"/>
<path d="M140.399 257.523L96.8269 279.72L174.288 344.293L140.399 257.523Z" fill="#E8E7E7"/>
<g clip-path="url(#clip0)">
<path d="M335.955 2.50676C333.518 0.845703 331.341 4.51477 328.905 2.85371C328.976 4.33788 329.052 5.80596 329.123 7.29012C331.559 8.95118 333.736 5.28211 336.173 6.94316C336.102 5.459 336.026 3.99092 335.955 2.50676" fill="#D88686"/>
<path d="M328.636 2.86062L328.469 2.88026L328.911 11.508L329.073 11.5577L328.636 2.86062Z" fill="#94989B"/>
<path d="M329.333 11.6362L328.888 2.84882L328.743 2.85734L329.171 11.5866L329.333 11.6362Z" fill="#94989B"/>
<path d="M328.636 2.85981L328.743 2.85744L328.636 2.85981Z" fill="#D0D0D0"/>
<path d="M329.171 11.5867L328.743 2.85744L328.636 2.85981L329.073 11.5569L329.171 11.5867Z" fill="#D0D0D0"/>
</g>
<defs>
<clipPath id="clip0">
<rect width="10.875" height="10.7844" fill="white" transform="matrix(0.956317 0.292331 -0.297791 0.954631 328.157 0)"/>
</clipPath>
</defs>
</svg>
