<svg width="1069" height="2993" viewBox="0 0 1069 2993" fill="none" xmlns="http://www.w3.org/2000/svg">
<path d="M1053.5 106.999L945.998 93.9993L828.998 40.9993L827.998 40.4993L827.498 39.9993L826.998 40.4993L826.498 41.4993L825.998 41.2493L825.498 40.9993L824.498 40.4993C824.498 40.4993 822.873 42.5607 822.498 43.4993C821.498 45.9993 819.498 48.4993 819.498 48.4993L808.248 54.2493L787.498 67.4993L745.998 93.9993L673.998 85.9993C673.998 85.9993 625.498 65.4993 611.998 63.9993C598.498 62.4993 556.998 93.9993 556.998 93.9993L470.498 56.4681L442.373 59.7213L428.998 60.9993L428.498 60.4993L427.498 59.9993L426.498 59.4993L424.998 60.4993L421.28 62.1612L414.249 62.9745L404.498 60.4993L397.436 55.4807L380.623 47.9869L363.81 40.4931L355.404 36.7462L346.998 32.9993L341.998 33.9993L337.998 37.9993L328.998 42.9993L310.498 47.9869L273.998 62.9745L201.998 103.999L147.498 75.4993L145.998 74.9993L144.998 73.9993L143.998 72.4993L140.498 71.4993L136.982 70.4524L133.56 68.6868L119.873 61.6243L105.498 55.4993L98.9976 51.4993L95.7476 49.4993L94.1226 48.4993L92.9976 47.9993L92.4976 47.4993L90.6226 48.4993L88.7476 49.4993L84.9976 51.4993L81.2257 55.5387L76.9976 61.4993L69.9538 63.5781L47.4101 79.6569L27.4538 102.328L7.49756 124.999L4.24756 128.749C4.24756 128.749 1.99756 131.499 1.49756 132.499C0.997559 133.499 0.997559 134.999 0.997559 134.999V137.499V222.249V311.999H1069L1053.5 106.999Z" fill="#DCDCDC"/>
<path d="M687.355 118.984L613.924 97.6141L596.94 82.4898L576.959 76.9907L562.972 59.4937L549.484 42.9965L532.5 35.4978L517.514 26.9993L502.528 35.4978L490.54 49.9953L466.063 59.4937L453.075 82.4898L412.498 69.9919L402.998 75.4993L391.998 73.9993L379.498 69.9919H373.15L365.998 79.9993L352.794 86.864L332.438 103.736L291.726 137.48L240.998 97.4993L214.299 82.4898L196.998 91.4993L181.998 105.986L129.378 127.982L101.904 116.984L88.1668 111.485L77.9976 108.999L74.4297 105.986L58.4976 111.999L47.2136 121.733L19.9976 137.48L1.99756 177.973V2950H1069V1527.24V815.864V460.175V282.331V193.408V148.947V126.717V115.601V110.044V107.265V105.875C1069 105.875 1069 104.499 1068.5 103.999C1068 103.499 1051.51 94.4877 1051.51 94.4877L1039 81.4993L1025 73.4993L1014.5 57.9993L992.569 41.4968L932.625 69.9919L865.688 104.486L827.724 75.613L819.998 64.9993L809.998 60.9993L802.498 55.4993L795.498 48.4993L789.759 46.74V56.9993L783.998 69.9919L742.998 88.9993L687.355 118.984Z" fill="#D3D3D3"/>
<path d="M0.997559 2992.5V173.874L30.4976 135.999L42.4976 124.749L47.4976 117.499L54.4976 113.499L59.4976 117.499L67.9976 117.249L81.4976 120.999L97.4976 102.999L112.498 91.4993L127.998 84.9993L135.998 91.4993L156.998 96.9993L176.998 113.499L207.498 120.999L222.498 132.499L240.852 139.626L260.998 120.999L269.498 113.499L279.498 111.999L287.998 107.999L299.498 113.499L311.998 120.999L330.498 128.499L385.498 107.999L415.998 102.999L430.498 93.9993L439.998 86.9993L448.998 88.7434L461.498 93.9993L478.998 108.499L504.998 112.999L529.998 127.499L539.498 130.499L544.998 135.999L547.498 143.499L555.498 148.499L565.998 163.499L581.726 173.874L621.498 150.999L637.498 126.999L660.498 99.9993L683.498 89.4993L701.498 76.4993L725.998 99.9993L739.498 116.999L765.498 126.999L776.998 155.999L800.998 164.499L813.998 116.999L829.498 94.7493L837.998 81.9993L850.498 76.4993L856.748 59.2493L868.498 45.9993L896.265 32.968L929.498 3.99927L955.998 18.9993L1001.5 62.4993L1024 76.4993L1044.5 99.9993L1069 128.499V2992.5H0.997559Z" fill="white"/>
<path d="M752.995 121.999L765.995 126.952L751.495 138.999L732.495 148.999L748.995 136.226L752.995 126.952V121.999Z" fill="#DCDCDC"/>
<path d="M288.274 108.384L298.998 113.5L297.998 117.5L294.998 119L291.498 119.5L288.998 121.5L292.998 125L285.629 125.244L265.998 133.938L283.322 122.308L287.939 113.326L288.274 108.384Z" fill="#DCDCDC"/>
<path d="M124.645 86.5001L113 91.4079L114.891 95.1216L115.5 97L108.5 107L116.5 99L117.688 96.756L121.002 97.4141L123.301 99.5252L119.347 102.84L126.356 103.418L144.703 112.993L128.675 100.59L124.645 91.4081L124.645 86.5001Z" fill="#DCDCDC"/>
<path d="M895.496 33.4988L888.395 45.4219L909.334 61.3666L921.996 84.2205L904.221 66.3642L878.898 63.1506L894.238 77.0733L884.986 78.2632L878.898 100.395L894.238 130.499L870.861 103.741L836.496 95.4988L866.481 86.8305L862.099 75.4074L859.177 66.3642L863.803 61.3666L870.861 54.7031L868.996 45.9988L895.496 33.4988Z" fill="#DCDCDC"/>
<path d="M688.495 85.9988V92.4988L694.898 95.9988L689.995 100.499L688.995 107.499L690.995 114.499L694.898 116.999L689.995 126.499L697.495 154.999L689.995 141.499L681.995 124.999L655.995 138.499L676.495 119.999L655.995 124.499L670.495 115.499L676.995 112.499L681.995 109.999L686.86 100.499V97.2031L684.995 88.4988L688.495 85.9988Z" fill="#DCDCDC"/>
<path d="M968.997 31.9987L955.997 19.4987L943.997 12.8809L953.497 29.8809L964.497 33.3809L980.997 46.3809L997.997 63.3809L997.997 71.9988L997.997 87.4988L999.747 77.9988L1001.5 74.4988L1021 94.9998L1002.5 68.4998L1001.5 62.9987L968.997 31.9987Z" fill="#DCDCDC"/>
<path d="M349.984 121.513L338.108 125.897L330.998 128.5L326.998 132.5L331.998 130.5L326.998 140L337.998 130.5L339.498 134L339.998 130.5L343.235 131.176L349.182 125.011L362.594 118.453L378.503 112.947L383.498 115.937L392.481 121.315L387.598 116.845L386.193 114.457L405.022 108.488L383.073 111.704L379.528 110.466L349.984 121.513Z" fill="#DCDCDC"/>
<path d="M199.181 119.187L204.52 120.466L207.5 121.5L209.387 122.549L207.147 121.956L209.002 125.208L204.335 122.095L201.847 122.457L199.377 120.409L193.429 118.395L186.5 121.5L182.575 117.526L179.276 117.989L177 117.5L176.202 116.813L173.5 118L176 115L174.059 111.5L176.5 113.5L185.904 115.957L199.181 119.187Z" fill="#DCDCDC"/>
<path d="M503.998 128.118L482.998 109.5L478.998 109L490.998 121.538L489.498 126.538L482.998 134.038L487.498 143.538L473.498 164.538L476.998 162L491.498 146.038L497.998 160.038L499.998 160.038L495.998 136.538L493.498 133.038L503.998 128.118Z" fill="#DCDCDC"/>
</svg>
